<svg width="1125" height="50" viewBox="0 0 1125 50" fill="none" xmlns="http://www.w3.org/2000/svg">
<line x1="24.9976" y1="24.3774" x2="1100" y2="24.3774" stroke="black"/>
<circle cx="25" cy="25" r="24.5" fill="white" stroke="black"/>
<path d="M24.7192 31V20.76L25.8392 21.88H22.4792V19.8H27.3112V31H24.7192Z" fill="black"/>
<circle cx="455" cy="25" r="24.5" fill="white" stroke="black"/>
<path d="M450.809 31V29.32L455.129 25.24C455.471 24.9307 455.721 24.6533 455.881 24.408C456.041 24.1627 456.148 23.9387 456.201 23.736C456.265 23.5333 456.297 23.3467 456.297 23.176C456.297 22.728 456.143 22.3867 455.833 22.152C455.535 21.9067 455.092 21.784 454.505 21.784C454.036 21.784 453.599 21.8747 453.193 22.056C452.799 22.2373 452.463 22.52 452.185 22.904L450.297 21.688C450.724 21.048 451.321 20.5413 452.089 20.168C452.857 19.7947 453.743 19.608 454.745 19.608C455.577 19.608 456.303 19.7467 456.921 20.024C457.551 20.2907 458.036 20.6693 458.377 21.16C458.729 21.6507 458.905 22.2373 458.905 22.92C458.905 23.2827 458.857 23.6453 458.761 24.008C458.676 24.36 458.495 24.7333 458.217 25.128C457.951 25.5227 457.556 25.9653 457.033 26.456L453.449 29.832L452.953 28.888H459.273V31H450.809Z" fill="black"/>
<circle cx="865" cy="25" r="24.5" fill="white" stroke="black"/>
<path d="M864.522 31.192C863.743 31.192 862.97 31.0907 862.202 30.888C861.434 30.6747 860.783 30.376 860.25 29.992L861.258 28.008C861.684 28.3173 862.18 28.5627 862.746 28.744C863.311 28.9253 863.882 29.016 864.458 29.016C865.108 29.016 865.62 28.888 865.994 28.632C866.367 28.376 866.554 28.024 866.554 27.576C866.554 27.1493 866.388 26.8133 866.058 26.568C865.727 26.3227 865.194 26.2 864.458 26.2H863.274V24.488L866.394 20.952L866.682 21.88H860.81V19.8H868.65V21.48L865.546 25.016L864.234 24.264H864.986C866.362 24.264 867.402 24.5733 868.106 25.192C868.81 25.8107 869.162 26.6053 869.162 27.576C869.162 28.2053 868.996 28.7973 868.666 29.352C868.335 29.896 867.828 30.3387 867.146 30.68C866.463 31.0213 865.588 31.192 864.522 31.192Z" fill="black"/>
<circle cx="1100" cy="25" r="24.5" fill="black" stroke="black"/>
<path d="M1106.74 15L1096.55 27.2081L1093.24 23.2487L1090 27.132L1093.31 31.0914L1096.57 35L1099.81 31.1167L1110 18.9087L1106.74 15Z" fill="white"/>
</svg>
